<mxfile host="Electron" modified="2024-03-27T18:58:24.361Z" agent="Mozilla/5.0 (Macintosh; Intel Mac OS X 10_15_7) AppleWebKit/537.36 (KHTML, like Gecko) draw.io/24.0.4 Chrome/120.0.6099.109 Electron/28.1.0 Safari/537.36" etag="aXRU8OHi671tDlf_XR1O" version="24.0.4" type="device">
  <diagram name="Page-1" id="Ht-FltXELcdBktOa9shP">
    <mxGraphModel dx="1026" dy="693" grid="1" gridSize="10" guides="1" tooltips="1" connect="1" arrows="1" fold="1" page="1" pageScale="1" pageWidth="850" pageHeight="1100" math="0" shadow="0">
      <root>
        <mxCell id="0" />
        <mxCell id="1" parent="0" />
        <mxCell id="1XLg7SbAFKWoH1kDrbpS-10" value="" style="ellipse;shape=cloud;whiteSpace=wrap;html=1;sketch=1;curveFitting=1;jiggle=2;strokeWidth=2;strokeColor=#006EAF;fontColor=#ffffff;fillColor=#1ba1e2;opacity=66;" vertex="1" parent="1">
          <mxGeometry x="280" y="120" width="350" height="230" as="geometry" />
        </mxCell>
        <mxCell id="1XLg7SbAFKWoH1kDrbpS-1" value="&lt;b&gt;RPi&lt;/b&gt; (or MCU)" style="rounded=0;whiteSpace=wrap;html=1;verticalAlign=bottom;fontColor=#ffffff;sketch=1;curveFitting=1;jiggle=2;fillColor=#1ba1e2;strokeColor=#006EAF;opacity=50;" vertex="1" parent="1">
          <mxGeometry x="110" y="70" width="140" height="160" as="geometry" />
        </mxCell>
        <mxCell id="1XLg7SbAFKWoH1kDrbpS-2" value="&lt;b&gt;Browser&lt;/b&gt;" style="rounded=0;whiteSpace=wrap;html=1;verticalAlign=top;fontColor=#ffffff;sketch=1;curveFitting=1;jiggle=2;fillColor=#1ba1e2;strokeColor=#006EAF;opacity=50;" vertex="1" parent="1">
          <mxGeometry x="110" y="250" width="140" height="100" as="geometry" />
        </mxCell>
        <mxCell id="1XLg7SbAFKWoH1kDrbpS-3" value="HTTP Server" style="rounded=0;whiteSpace=wrap;html=1;verticalAlign=bottom;fontColor=#ffffff;sketch=1;curveFitting=1;jiggle=2;fillColor=#1ba1e2;strokeColor=#006EAF;opacity=50;" vertex="1" parent="1">
          <mxGeometry x="670" y="190" width="140" height="120" as="geometry" />
        </mxCell>
        <mxCell id="bvMk6AtJX3BaU14gF-7Z-13" style="edgeStyle=orthogonalEdgeStyle;rounded=0;orthogonalLoop=1;jettySize=auto;html=1;exitX=0;exitY=0.5;exitDx=0;exitDy=0;sketch=1;curveFitting=1;jiggle=2;strokeWidth=2;strokeColor=#999999;fontColor=#999999;" parent="1" source="bvMk6AtJX3BaU14gF-7Z-1" target="bvMk6AtJX3BaU14gF-7Z-4" edge="1">
          <mxGeometry relative="1" as="geometry" />
        </mxCell>
        <mxCell id="bvMk6AtJX3BaU14gF-7Z-1" value="&lt;b&gt;AM Display&lt;br&gt;&lt;/b&gt;&lt;br&gt;(E-Paper)" style="rounded=1;whiteSpace=wrap;html=1;sketch=1;curveFitting=1;jiggle=2;strokeWidth=2;strokeColor=#999999;fontColor=#999999;fillColor=none;" parent="1" vertex="1">
          <mxGeometry x="120" y="80" width="120" height="60" as="geometry" />
        </mxCell>
        <mxCell id="bvMk6AtJX3BaU14gF-7Z-2" value="&lt;b&gt;AM Client&lt;/b&gt;&lt;div&gt;&lt;br&gt;&lt;/div&gt;&lt;div&gt;(MQTT Subscribe)&lt;/div&gt;" style="rounded=1;whiteSpace=wrap;html=1;sketch=1;curveFitting=1;jiggle=2;strokeWidth=2;strokeColor=#999999;fontColor=#999999;fillColor=none;" parent="1" vertex="1">
          <mxGeometry x="120" y="140" width="120" height="60" as="geometry" />
        </mxCell>
        <mxCell id="bvMk6AtJX3BaU14gF-7Z-3" value="&lt;b&gt;AM Server&lt;/b&gt;&lt;div&gt;&lt;br&gt;&lt;/div&gt;&lt;div&gt;(HTTP/REST&lt;br&gt;+ MQTT Publish)&lt;/div&gt;" style="rounded=1;whiteSpace=wrap;html=1;sketch=1;curveFitting=1;jiggle=2;strokeWidth=2;strokeColor=#999999;fontColor=#999999;fillColor=none;" parent="1" vertex="1">
          <mxGeometry x="680" y="200" width="120" height="80" as="geometry" />
        </mxCell>
        <mxCell id="bvMk6AtJX3BaU14gF-7Z-4" value="Recipient" style="shape=umlActor;verticalLabelPosition=bottom;verticalAlign=top;html=1;outlineConnect=0;sketch=1;curveFitting=1;jiggle=2;strokeWidth=2;strokeColor=#999999;fontColor=#999999;fillColor=none;" parent="1" vertex="1">
          <mxGeometry x="40" y="80" width="30" height="60" as="geometry" />
        </mxCell>
        <mxCell id="bvMk6AtJX3BaU14gF-7Z-5" value="Sender" style="shape=umlActor;verticalLabelPosition=bottom;verticalAlign=top;html=1;outlineConnect=0;sketch=1;curveFitting=1;jiggle=2;strokeWidth=2;strokeColor=#999999;fontColor=#999999;fillColor=none;" parent="1" vertex="1">
          <mxGeometry x="50" y="280" width="30" height="60" as="geometry" />
        </mxCell>
        <mxCell id="bvMk6AtJX3BaU14gF-7Z-15" style="edgeStyle=none;rounded=0;orthogonalLoop=1;jettySize=auto;html=1;exitX=0;exitY=0.5;exitDx=0;exitDy=0;strokeColor=#999999;align=center;verticalAlign=middle;fontFamily=Helvetica;fontSize=11;fontColor=#999999;labelBackgroundColor=default;startArrow=classic;startFill=1;endArrow=none;endFill=0;sketch=1;curveFitting=1;jiggle=2;strokeWidth=2;" parent="1" source="bvMk6AtJX3BaU14gF-7Z-7" target="bvMk6AtJX3BaU14gF-7Z-5" edge="1">
          <mxGeometry relative="1" as="geometry" />
        </mxCell>
        <mxCell id="bvMk6AtJX3BaU14gF-7Z-7" value="&lt;b&gt;AM App UI&lt;/b&gt;&lt;div&gt;&lt;br&gt;&lt;/div&gt;&lt;div&gt;(HTML/JS)&lt;/div&gt;" style="rounded=1;whiteSpace=wrap;html=1;sketch=1;curveFitting=1;jiggle=2;strokeWidth=2;strokeColor=#999999;fontColor=#999999;fillColor=none;" parent="1" vertex="1">
          <mxGeometry x="120" y="280" width="120" height="60" as="geometry" />
        </mxCell>
        <mxCell id="uxLBMw8K7poT05FnwZPx-6" style="rounded=0;orthogonalLoop=1;jettySize=auto;html=1;exitX=0.88;exitY=0.25;exitDx=0;exitDy=0;exitPerimeter=0;entryX=0;entryY=0.5;entryDx=0;entryDy=0;dashed=1;strokeColor=#999999;strokeWidth=1;align=center;verticalAlign=middle;fontFamily=Helvetica;fontSize=11;fontColor=#999999;labelBackgroundColor=default;endArrow=none;dashPattern=8 8;" parent="1" source="bvMk6AtJX3BaU14gF-7Z-10" target="uxLBMw8K7poT05FnwZPx-5" edge="1">
          <mxGeometry relative="1" as="geometry" />
        </mxCell>
        <mxCell id="1XLg7SbAFKWoH1kDrbpS-8" style="edgeStyle=none;rounded=0;orthogonalLoop=1;jettySize=auto;html=1;dashed=1;dashPattern=8 8;strokeColor=#999999;strokeWidth=1;align=center;verticalAlign=middle;fontFamily=Helvetica;fontSize=11;fontColor=#999999;labelBackgroundColor=default;endArrow=none;" edge="1" parent="1" source="bvMk6AtJX3BaU14gF-7Z-10">
          <mxGeometry relative="1" as="geometry">
            <mxPoint x="680" y="240" as="targetPoint" />
          </mxGeometry>
        </mxCell>
        <mxCell id="1XLg7SbAFKWoH1kDrbpS-9" style="edgeStyle=none;rounded=0;orthogonalLoop=1;jettySize=auto;html=1;exitX=0.13;exitY=0.77;exitDx=0;exitDy=0;exitPerimeter=0;entryX=1;entryY=0.5;entryDx=0;entryDy=0;dashed=1;dashPattern=8 8;strokeColor=#999999;strokeWidth=1;align=center;verticalAlign=middle;fontFamily=Helvetica;fontSize=11;fontColor=#999999;labelBackgroundColor=default;endArrow=none;" edge="1" parent="1" source="bvMk6AtJX3BaU14gF-7Z-10" target="bvMk6AtJX3BaU14gF-7Z-7">
          <mxGeometry relative="1" as="geometry" />
        </mxCell>
        <mxCell id="bvMk6AtJX3BaU14gF-7Z-10" value="Internet" style="ellipse;shape=cloud;whiteSpace=wrap;html=1;sketch=1;curveFitting=1;jiggle=2;strokeWidth=2;strokeColor=#999999;fontColor=#999999;fillColor=default;" parent="1" vertex="1">
          <mxGeometry x="400" y="200" width="120" height="80" as="geometry" />
        </mxCell>
        <mxCell id="uxLBMw8K7poT05FnwZPx-1" value="HTTP &amp;amp; REST" style="endArrow=classic;dashed=1;html=1;dashPattern=1 3;strokeWidth=2;rounded=0;sketch=1;jiggle=2;curveFitting=1;strokeColor=#999999;align=center;verticalAlign=top;fontFamily=Helvetica;fontSize=11;fontColor=#999999;labelBackgroundColor=default;edgeStyle=orthogonalEdgeStyle;exitX=1;exitY=0.5;exitDx=0;exitDy=0;entryX=0;entryY=0.5;entryDx=0;entryDy=0;curved=1;endFill=1;" parent="1" source="bvMk6AtJX3BaU14gF-7Z-7" target="bvMk6AtJX3BaU14gF-7Z-3" edge="1">
          <mxGeometry x="-0.1014" width="50" height="50" relative="1" as="geometry">
            <mxPoint x="400" y="380" as="sourcePoint" />
            <mxPoint x="450" y="330" as="targetPoint" />
            <Array as="points">
              <mxPoint x="240" y="400" />
              <mxPoint x="680" y="400" />
            </Array>
            <mxPoint as="offset" />
          </mxGeometry>
        </mxCell>
        <mxCell id="uxLBMw8K7poT05FnwZPx-3" value="MQTT" style="endArrow=none;dashed=1;html=1;dashPattern=1 3;strokeWidth=2;rounded=0;sketch=1;jiggle=2;curveFitting=1;strokeColor=#999999;align=center;verticalAlign=bottom;fontFamily=Helvetica;fontSize=11;fontColor=#999999;labelBackgroundColor=default;edgeStyle=orthogonalEdgeStyle;curved=1;exitX=1;exitY=0.5;exitDx=0;exitDy=0;entryX=0;entryY=0.5;entryDx=0;entryDy=0;startArrow=classic;startFill=1;" parent="1" source="bvMk6AtJX3BaU14gF-7Z-2" target="bvMk6AtJX3BaU14gF-7Z-3" edge="1">
          <mxGeometry x="-0.1014" width="50" height="50" relative="1" as="geometry">
            <mxPoint x="400" y="380" as="sourcePoint" />
            <mxPoint x="450" y="330" as="targetPoint" />
            <Array as="points">
              <mxPoint x="240" y="80" />
              <mxPoint x="680" y="80" />
            </Array>
            <mxPoint as="offset" />
          </mxGeometry>
        </mxCell>
        <mxCell id="uxLBMw8K7poT05FnwZPx-5" value="&lt;div&gt;MQTT Broker&lt;/div&gt;" style="rounded=1;whiteSpace=wrap;html=1;strokeWidth=1;strokeColor=#999999;fontColor=#999999;fillColor=none;dashed=1;dashPattern=8 8;" parent="1" vertex="1">
          <mxGeometry x="680" y="80" width="120" height="60" as="geometry" />
        </mxCell>
        <mxCell id="1XLg7SbAFKWoH1kDrbpS-6" style="edgeStyle=none;rounded=0;orthogonalLoop=1;jettySize=auto;html=1;entryX=0.07;entryY=0.4;entryDx=0;entryDy=0;entryPerimeter=0;dashed=1;dashPattern=8 8;strokeColor=#999999;strokeWidth=1;align=center;verticalAlign=middle;fontFamily=Helvetica;fontSize=11;fontColor=#999999;labelBackgroundColor=default;endArrow=none;" edge="1" parent="1" source="bvMk6AtJX3BaU14gF-7Z-2" target="bvMk6AtJX3BaU14gF-7Z-10">
          <mxGeometry relative="1" as="geometry" />
        </mxCell>
      </root>
    </mxGraphModel>
  </diagram>
</mxfile>
